<svg width="17" height="16" viewBox="0 0 17 16" fill="none" xmlns="http://www.w3.org/2000/svg">
<path d="M7.67687 0.619385C3.43509 0.619385 0 4.05897 0 8.29639C0 12.5382 3.43509 15.9734 7.67687 15.9734C11.9187 15.9734 15.3537 12.5382 15.3537 8.29639C15.3537 4.05897 11.9187 0.619385 7.67687 0.619385ZM7.67687 12.3255C5.45182 12.3255 3.64784 10.5215 3.64784 8.29639C3.64784 6.0713 5.45182 4.26729 7.67687 4.26729C9.90193 4.26729 11.7059 6.0713 11.7059 8.29639C11.7059 10.5215 9.90193 12.3255 7.67687 12.3255Z" fill="#0F1112"/>
<path d="M14.8752 12.3255H7.677V15.9734H14.8752V12.3255Z" fill="#0F1112"/>
<path d="M14.8751 15.9778C15.8836 15.9778 16.7012 15.1602 16.7012 14.1517C16.7012 13.1431 15.8836 12.3255 14.8751 12.3255C13.8665 12.3255 13.049 13.1431 13.049 14.1517C13.049 15.1602 13.8665 15.9778 14.8751 15.9778Z" fill="#0F1112"/>
</svg>
