<svg width="122" height="42" viewBox="0 0 122 42" fill="none" xmlns="http://www.w3.org/2000/svg">
<path d="M51.9173 21.5387C51.9173 27.3685 47.4365 31.6644 41.9375 31.6644C36.4385 31.6644 31.9577 27.3685 31.9577 21.5387C31.9577 15.6679 36.4385 11.4131 41.9375 11.4131C47.4365 11.4131 51.9173 15.6679 51.9173 21.5387ZM47.5486 21.5387C47.5486 17.8957 44.9516 15.4031 41.9375 15.4031C38.9234 15.4031 36.3264 17.8957 36.3264 21.5387C36.3264 25.1453 38.9234 27.6744 41.9375 27.6744C44.9516 27.6744 47.5486 25.1407 47.5486 21.5387Z" fill="#EA4335"/>
<path d="M73.4467 21.5387C73.4467 27.3685 68.9659 31.6644 63.4669 31.6644C57.9679 31.6644 53.4871 27.3685 53.4871 21.5387C53.4871 15.6724 57.9679 11.4131 63.4669 11.4131C68.9659 11.4131 73.4467 15.6679 73.4467 21.5387ZM69.078 21.5387C69.078 17.8957 66.481 15.4031 63.4669 15.4031C60.4528 15.4031 57.8558 17.8957 57.8558 21.5387C57.8558 25.1453 60.4528 27.6744 63.4669 27.6744C66.481 27.6744 69.078 25.1407 69.078 21.5387Z" fill="#FBBC05"/>
<path d="M94.079 12.0248V30.2035C94.079 37.6813 89.7462 40.7355 84.624 40.7355C79.8023 40.7355 76.9004 37.4531 75.806 34.7687L79.6095 33.1572C80.2868 34.8053 81.9463 36.75 84.6196 36.75C87.8983 36.75 89.9301 34.6911 89.9301 30.8153V29.359H89.7776C88.7999 30.587 86.916 31.6598 84.5388 31.6598C79.5646 31.6598 75.0076 27.2498 75.0076 21.5753C75.0076 15.8596 79.5646 11.4131 84.5388 11.4131C86.9115 11.4131 88.7954 12.4859 89.7776 13.6774H89.9301V12.0294H94.079V12.0248ZM90.2396 21.5753C90.2396 18.0098 87.9028 15.4031 84.929 15.4031C81.9149 15.4031 79.3897 18.0098 79.3897 21.5753C79.3897 25.1042 81.9149 27.6744 84.929 27.6744C87.9028 27.6744 90.2396 25.1042 90.2396 21.5753Z" fill="#4285F4"/>
<path d="M100.919 1.36951V31.0434H96.6581V1.36951H100.919Z" fill="#34A853"/>
<path d="M117.524 24.8713L120.915 27.1721C119.82 28.8202 117.183 31.6598 112.626 31.6598C106.974 31.6598 102.754 27.2132 102.754 21.5341C102.754 15.5126 107.01 11.4084 112.137 11.4084C117.299 11.4084 119.825 15.5902 120.65 17.85L121.103 19.0004L107.804 24.6065C108.822 26.638 110.406 27.6743 112.626 27.6743C114.85 27.6743 116.393 26.5604 117.524 24.8713ZM107.086 21.2282L115.976 17.4711C115.487 16.2065 114.016 15.3254 112.285 15.3254C110.065 15.3254 106.974 17.3204 107.086 21.2282Z" fill="#EA4335"/>
<path d="M15.8286 18.9046V14.6087H30.0515C30.1905 15.3574 30.2623 16.2431 30.2623 17.2018C30.2623 20.4248 29.3966 24.4102 26.6068 27.2498C23.8932 30.1259 20.426 31.6598 15.8331 31.6598C7.32 31.6598 0.161469 24.602 0.161469 15.9372C0.161469 7.27243 7.32 0.2146 15.8331 0.2146C20.5426 0.2146 23.8976 2.09547 26.4184 4.54699L23.4401 7.5783C21.6326 5.85264 19.1836 4.51047 15.8286 4.51047C9.61198 4.51047 4.74992 9.60982 4.74992 15.9372C4.74992 22.2646 9.61198 27.3639 15.8286 27.3639C19.8609 27.3639 22.1574 25.7159 23.6285 24.2185C24.8216 23.0042 25.6065 21.2694 25.916 18.9L15.8286 18.9046Z" fill="#4285F4"/>
</svg>
