<svg width="18" height="15" viewBox="0 0 18 15" fill="none" xmlns="http://www.w3.org/2000/svg">
<path fill-rule="evenodd" clip-rule="evenodd" d="M2.1345 3.06015C2.157 2.8279 2.07225 2.5988 1.90725 2.44292L0.22725 0.317273V0H5.44575L9.47925 9.28594L13.0253 0H18V0.317273L16.563 1.7635C16.4392 1.8627 16.3778 2.02567 16.4032 2.18706V12.8137C16.3778 12.9743 16.4392 13.1373 16.563 13.2365L17.9662 14.6827V15H10.9073V14.6827L12.3615 13.2011C12.504 13.0515 12.504 13.0074 12.504 12.7783V4.1891L8.46225 14.9654H7.91625L3.21 4.1891V11.4116C3.171 11.7147 3.267 12.0209 3.47025 12.2398L5.361 14.6473V14.9654H0V14.6473L1.89075 12.2398C2.09325 12.0202 2.18325 11.7123 2.1345 11.4116V3.06015Z" fill="black"/>
</svg>
