<svg width="17" height="16" viewBox="0 0 17 16" fill="none" xmlns="http://www.w3.org/2000/svg">
<path d="M5.125 8H5.1325M8.5 8H8.5075M11.875 8H11.8825M8.5 14.75C12.2279 14.75 15.25 11.7279 15.25 8C15.25 4.27208 12.2279 1.25 8.5 1.25C4.77208 1.25 1.75 4.27208 1.75 8C1.75 8.89786 1.9253 9.75477 2.24355 10.5384C2.30446 10.6884 2.33491 10.7633 2.3485 10.824C2.36179 10.8833 2.36665 10.9271 2.36666 10.9879C2.36666 11.05 2.35539 11.1177 2.33283 11.253L1.8881 13.9214C1.84152 14.2009 1.81824 14.3406 1.86157 14.4416C1.8995 14.53 1.96996 14.6005 2.05839 14.6384C2.15942 14.6818 2.29914 14.6585 2.57857 14.6119L5.24699 14.1672C5.38232 14.1446 5.44998 14.1333 5.5121 14.1333C5.57287 14.1334 5.61675 14.1382 5.67604 14.1515C5.73666 14.1651 5.81164 14.1955 5.96162 14.2565C6.74523 14.5747 7.60214 14.75 8.5 14.75ZM5.5 8C5.5 8.20711 5.33211 8.375 5.125 8.375C4.91789 8.375 4.75 8.20711 4.75 8C4.75 7.79289 4.91789 7.625 5.125 7.625C5.33211 7.625 5.5 7.79289 5.5 8ZM8.875 8C8.875 8.20711 8.70711 8.375 8.5 8.375C8.29289 8.375 8.125 8.20711 8.125 8C8.125 7.79289 8.29289 7.625 8.5 7.625C8.70711 7.625 8.875 7.79289 8.875 8ZM12.25 8C12.25 8.20711 12.0821 8.375 11.875 8.375C11.6679 8.375 11.5 8.20711 11.5 8C11.5 7.79289 11.6679 7.625 11.875 7.625C12.0821 7.625 12.25 7.79289 12.25 8Z" stroke="black" stroke-width="1.54167" stroke-linecap="round" stroke-linejoin="round"/>
</svg>
