<svg width="18" height="18" viewBox="0 0 18 18" fill="none" xmlns="http://www.w3.org/2000/svg">
<path d="M1.5 9C1.5 13.1421 4.85786 16.5 9 16.5C10.2426 16.5 11.25 15.4926 11.25 14.25V13.875C11.25 13.5267 11.25 13.3525 11.2692 13.2063C11.4022 12.1967 12.1967 11.4022 13.2063 11.2692C13.3525 11.25 13.5267 11.25 13.875 11.25H14.25C15.4926 11.25 16.5 10.2426 16.5 9C16.5 4.85786 13.1421 1.5 9 1.5C4.85786 1.5 1.5 4.85786 1.5 9Z" stroke="#025AFF" stroke-width="1.5" stroke-linecap="round" stroke-linejoin="round"/>
<path d="M5.25 9.75C5.66421 9.75 6 9.41421 6 9C6 8.58579 5.66421 8.25 5.25 8.25C4.83579 8.25 4.5 8.58579 4.5 9C4.5 9.41421 4.83579 9.75 5.25 9.75Z" stroke="#025AFF" stroke-width="1.5" stroke-linecap="round" stroke-linejoin="round"/>
<path d="M12 6.75C12.4142 6.75 12.75 6.41421 12.75 6C12.75 5.58579 12.4142 5.25 12 5.25C11.5858 5.25 11.25 5.58579 11.25 6C11.25 6.41421 11.5858 6.75 12 6.75Z" stroke="#025AFF" stroke-width="1.5" stroke-linecap="round" stroke-linejoin="round"/>
<path d="M7.5 6C7.91421 6 8.25 5.66421 8.25 5.25C8.25 4.83579 7.91421 4.5 7.5 4.5C7.08579 4.5 6.75 4.83579 6.75 5.25C6.75 5.66421 7.08579 6 7.5 6Z" stroke="#025AFF" stroke-width="1.5" stroke-linecap="round" stroke-linejoin="round"/>
</svg>
