<svg width="17" height="17" viewBox="0 0 17 17" fill="none" xmlns="http://www.w3.org/2000/svg">
<path d="M8 11.25L5.75 9M8 11.25C9.04763 10.8516 10.0527 10.349 11 9.75M8 11.25V15C8 15 10.2725 14.5875 11 13.5C11.81 12.285 11 9.75 11 9.75M5.75 9C6.14911 7.96458 6.65165 6.97205 7.25 6.0375C8.12389 4.64024 9.34072 3.48979 10.7848 2.69557C12.2288 1.90135 13.852 1.48978 15.5 1.5C15.5 3.54 14.915 7.125 11 9.75M5.75 9H2C2 9 2.4125 6.7275 3.5 6C4.715 5.19 7.25 6 7.25 6M2.375 12.375C1.25 13.32 0.875 16.125 0.875 16.125C0.875 16.125 3.68 15.75 4.625 14.625C5.1575 13.995 5.15 13.0275 4.5575 12.4425C4.26598 12.1643 3.88197 12.0035 3.47917 11.991C3.07637 11.9786 2.68316 12.1153 2.375 12.375Z" stroke="#025AFF" stroke-width="1.5" stroke-linecap="round" stroke-linejoin="round"/>
</svg>
