<svg width="17" height="17" viewBox="0 0 17 17" fill="none" xmlns="http://www.w3.org/2000/svg">
<path d="M10.7235 5.72353C10.4264 5.42652 10.2779 5.27801 10.2223 5.10676C10.1734 4.95613 10.1734 4.79387 10.2223 4.64324C10.2779 4.47199 10.4264 4.32348 10.7235 4.02647L12.8522 1.89769C12.2873 1.64222 11.6602 1.5 10.9999 1.5C8.51464 1.5 6.49993 3.51472 6.49993 6C6.49993 6.36828 6.54417 6.72623 6.62762 7.06882C6.71699 7.43568 6.76168 7.61911 6.75374 7.735C6.74544 7.85632 6.72735 7.92087 6.6714 8.02884C6.61796 8.13197 6.51557 8.23436 6.31079 8.43914L1.62493 13.125C1.00361 13.7463 1.00361 14.7537 1.62493 15.375C2.24625 15.9963 3.25361 15.9963 3.87493 15.375L8.56079 10.6891C8.76557 10.4844 8.86796 10.382 8.97109 10.3285C9.07906 10.2726 9.14361 10.2545 9.26493 10.2462C9.38081 10.2382 9.56425 10.2829 9.93111 10.3723C10.2737 10.4558 10.6316 10.5 10.9999 10.5C13.4852 10.5 15.4999 8.48528 15.4999 6C15.4999 5.33969 15.3577 4.71261 15.1022 4.14769L12.9735 6.27647C12.6764 6.57348 12.5279 6.72199 12.3567 6.77763C12.2061 6.82658 12.0438 6.82658 11.8932 6.77763C11.7219 6.72199 11.5734 6.57348 11.2764 6.27647L10.7235 5.72353Z" stroke="#025AFF" stroke-width="1.5" stroke-linecap="round" stroke-linejoin="round"/>
</svg>
