<svg width="16" height="18" viewBox="0 0 16 18" fill="none" xmlns="http://www.w3.org/2000/svg">
<path d="M11.0003 6.75V4.5C11.0003 2.84315 9.65713 1.5 8.00028 1.5C6.34342 1.5 5.00028 2.84315 5.00028 4.5V6.75M1.69428 7.76397L1.24428 12.564C1.11633 13.9287 1.05236 14.6111 1.27881 15.1382C1.47775 15.6012 1.82637 15.984 2.26879 16.2253C2.77242 16.5 3.4578 16.5 4.82856 16.5H11.172C12.5428 16.5 13.2281 16.5 13.7318 16.2253C14.1742 15.984 14.5228 15.6012 14.7217 15.1382C14.9482 14.6111 14.8842 13.9287 14.7563 12.564L14.3063 7.76397C14.1982 6.61151 14.1442 6.03528 13.885 5.59962C13.6568 5.21594 13.3195 4.90883 12.9162 4.71738C12.4583 4.5 11.8795 4.5 10.722 4.5L5.27856 4.5C4.12104 4.5 3.54229 4.5 3.08434 4.71738C2.68103 4.90883 2.34378 5.21594 2.11552 5.59962C1.85634 6.03528 1.80232 6.61151 1.69428 7.76397Z" stroke="#025AFF" stroke-width="1.5" stroke-linecap="round" stroke-linejoin="round"/>
</svg>
