<svg width="26" height="30" viewBox="0 0 26 30" fill="none" xmlns="http://www.w3.org/2000/svg">
<path d="M14.6667 1.66663H18.2667C20.5069 1.66663 21.627 1.66663 22.4826 2.1026C23.2353 2.48609 23.8472 3.09802 24.2307 3.85066C24.6667 4.70631 24.6667 5.82642 24.6667 8.06663V21.9333C24.6667 24.1735 24.6667 25.2936 24.2307 26.1493C23.8472 26.9019 23.2353 27.5138 22.4826 27.8973C21.627 28.3333 20.5069 28.3333 18.2667 28.3333H9.73333C7.49312 28.3333 6.37302 28.3333 5.51737 27.8973C4.76472 27.5138 4.1528 26.9019 3.76931 26.1493C3.33333 25.2936 3.33333 24.1735 3.33333 21.9333V21M19.3333 16.3333H13.3333M19.3333 11H14.6667M19.3333 21.6666H8.66667M6 12.3333V4.99996C6 3.89539 6.89543 2.99996 8 2.99996C9.10457 2.99996 10 3.89539 10 4.99996V12.3333C10 14.5424 8.20914 16.3333 6 16.3333C3.79086 16.3333 2 14.5424 2 12.3333V6.99996" stroke="#025AFF" stroke-width="2.66667" stroke-linecap="round" stroke-linejoin="round"/>
</svg>
