<svg width="142" height="23" viewBox="0 0 142 23" fill="none" xmlns="http://www.w3.org/2000/svg">
<path d="M80.7311 1.82617V19.3255H78.2091C77.4955 18.1598 77.0833 16.7901 77.0833 15.323V1.82617H80.7311Z" fill="black"/>
<path d="M92.437 15.2964V15.323C92.437 19.5649 89.0019 23 84.7601 23C81.9855 23 79.5565 21.5285 78.2091 19.3255C77.4955 18.1598 77.0833 16.7902 77.0833 15.323C77.0833 12.5616 78.5415 10.1415 80.7311 8.78516V15.2964C80.7311 15.3053 80.7311 15.3142 80.7311 15.323C80.7311 17.5481 82.5351 19.3521 84.7601 19.3521C86.9852 19.3521 88.7892 17.5481 88.7892 15.323C88.7892 15.3142 88.7892 15.3053 88.7892 15.2964H92.437Z" fill="black"/>
<path d="M90.611 17.1226C91.6195 17.1226 92.4371 16.3049 92.4371 15.2964C92.4371 14.2878 91.6195 13.4702 90.611 13.4702C89.6024 13.4702 88.7849 14.2878 88.7849 15.2964C88.7849 16.3049 89.6024 17.1226 90.611 17.1226Z" fill="black"/>
<path d="M78.9052 3.65234C79.9137 3.65234 80.7313 2.83474 80.7313 1.82617C80.7313 0.817604 79.9137 0 78.9052 0C77.8966 0 77.079 0.817604 77.079 1.82617C77.079 2.83474 77.8966 3.65234 78.9052 3.65234Z" fill="black"/>
<path d="M46.89 7.61938C42.6482 7.61938 39.2131 11.0545 39.2131 15.2964C39.2131 19.5382 42.6482 22.9734 46.89 22.9734C51.1318 22.9734 54.5669 19.5382 54.5669 15.2964C54.5669 11.059 51.1318 7.61938 46.89 7.61938ZM46.89 19.3255C44.665 19.3255 42.861 17.5215 42.861 15.2964C42.861 13.0713 44.665 11.2673 46.89 11.2673C49.1151 11.2673 50.919 13.0713 50.919 15.2964C50.919 17.5215 49.1151 19.3255 46.89 19.3255Z" fill="black"/>
<path d="M50.9208 9.44477L50.9208 21.1509L54.5686 21.1509L54.5686 9.44477L50.9208 9.44477Z" fill="black"/>
<path d="M52.7453 11.2717C53.7539 11.2717 54.5715 10.4541 54.5715 9.44555C54.5715 8.43699 53.7539 7.61938 52.7453 7.61938C51.7368 7.61938 50.9192 8.43699 50.9192 9.44555C50.9192 10.4541 51.7368 11.2717 52.7453 11.2717Z" fill="black"/>
<path d="M52.7453 22.9778C53.7539 22.9778 54.5715 22.1602 54.5715 21.1516C54.5715 20.143 53.7539 19.3254 52.7453 19.3254C51.7368 19.3254 50.9192 20.143 50.9192 21.1516C50.9192 22.1602 51.7368 22.9778 52.7453 22.9778Z" fill="black"/>
<path d="M7.67687 7.61938C3.43509 7.61938 0 11.059 0 15.2964C0 19.5382 3.43509 22.9734 7.67687 22.9734C11.9187 22.9734 15.3537 19.5382 15.3537 15.2964C15.3537 11.059 11.9187 7.61938 7.67687 7.61938ZM7.67687 19.3255C5.45182 19.3255 3.64784 17.5215 3.64784 15.2964C3.64784 13.0713 5.45182 11.2673 7.67687 11.2673C9.90193 11.2673 11.7059 13.0713 11.7059 15.2964C11.7059 17.5215 9.90193 19.3255 7.67687 19.3255Z" fill="black"/>
<path d="M14.8752 19.3254H7.677V22.9734H14.8752V19.3254Z" fill="black"/>
<path d="M14.8751 22.9778C15.8836 22.9778 16.7012 22.1602 16.7012 21.1516C16.7012 20.143 15.8836 19.3254 14.8751 19.3254C13.8665 19.3254 13.049 20.143 13.049 21.1516C13.049 22.1602 13.8665 22.9778 14.8751 22.9778Z" fill="black"/>
<path d="M20.278 9.44579L20.278 15.2966L23.9259 15.2966L23.9259 9.44579L20.278 9.44579Z" fill="black"/>
<path d="M31.9828 9.44506L31.9828 15.2959L35.6306 15.2959L35.6306 9.44506L31.9828 9.44506Z" fill="black"/>
<path d="M22.1043 11.2717C23.1128 11.2717 23.9304 10.4541 23.9304 9.44555C23.9304 8.43699 23.1128 7.61938 22.1043 7.61938C21.0957 7.61938 20.2781 8.43699 20.2781 9.44555C20.2781 10.4541 21.0957 11.2717 22.1043 11.2717Z" fill="black"/>
<path d="M33.8101 11.2717C34.8186 11.2717 35.6362 10.4541 35.6362 9.44555C35.6362 8.43699 34.8186 7.61938 33.8101 7.61938C32.8015 7.61938 31.9839 8.43699 31.9839 9.44555C31.9839 10.4541 32.8015 11.2717 33.8101 11.2717Z" fill="black"/>
<path d="M31.984 13.7893V15.2963C31.984 17.5214 30.1801 19.3254 27.955 19.3254C25.73 19.3254 23.926 17.5214 23.926 15.2963V13.7893H20.4244C20.3269 14.2769 20.2781 14.7822 20.2781 15.2963C20.2781 19.5382 23.7132 22.9734 27.955 22.9734C32.1968 22.9734 35.6319 19.5382 35.6319 15.2963C35.6319 14.7822 35.5831 14.2769 35.4856 13.7893H31.984Z" fill="black"/>
<path d="M73.5019 15.2964V21.1472C73.5019 22.1534 72.6863 22.9734 71.6757 22.9734L70.0358 21.9451C70.0047 21.8874 69.9826 21.8254 69.956 21.7633C69.8895 21.5727 69.8496 21.3644 69.8496 21.1472V15.2964H73.5019Z" fill="black"/>
<path d="M61.7959 15.2964V21.1472C61.7959 21.3644 61.756 21.5683 61.6895 21.7633C61.5698 22.0913 61.3615 22.3794 61.0911 22.5922C61.0379 22.6321 60.9803 22.672 60.9182 22.7119C60.8606 22.7473 60.7986 22.7784 60.7365 22.8094C60.506 22.9158 60.2445 22.9778 59.9741 22.9778C58.9813 22.9778 58.1746 22.1889 58.148 21.2004V15.2964H61.7959Z" fill="black"/>
<path d="M58.1458 9.4463L58.1458 15.3237L61.7936 15.3237L61.7936 9.4463L58.1458 9.4463Z" fill="black"/>
<path d="M59.9745 11.272C60.983 11.272 61.8006 10.4544 61.8006 9.4458C61.8006 8.43723 60.983 7.61963 59.9745 7.61963C58.9659 7.61963 58.1483 8.43723 58.1483 9.4458C58.1483 10.4544 58.9659 11.272 59.9745 11.272Z" fill="black"/>
<path d="M61.7961 21.1516C61.7961 21.3688 61.7562 21.5727 61.6897 21.7677C61.57 22.0957 61.3617 22.3838 61.0869 22.5966C61.0337 22.6365 60.9761 22.6764 60.914 22.7162C60.8564 22.7517 60.7944 22.7827 60.7323 22.8138C60.5018 22.9201 60.2403 22.9822 59.9699 22.9822C58.9771 22.9822 58.1704 22.1932 58.1438 21.2048C58.1438 21.1915 58.1438 21.1738 58.1438 21.156C58.1438 21.1427 58.1438 21.125 58.1438 21.1073C58.1615 20.336 58.6624 19.6844 59.3538 19.4362C59.5444 19.3697 59.7528 19.3299 59.9699 19.3299C60.9805 19.3254 61.7961 20.141 61.7961 21.1516Z" fill="black"/>
<path d="M73.5019 21.1516C73.5019 22.1578 72.6863 22.9778 71.6757 22.9778C70.9533 22.9778 70.3327 22.5567 70.0358 21.9495C70.0047 21.8918 69.9826 21.8298 69.956 21.7677C69.8895 21.5771 69.8496 21.3688 69.8496 21.1516C69.8496 20.1454 70.6652 19.3254 71.6757 19.3254C71.8929 19.3254 72.1013 19.3653 72.2918 19.4318C72.9966 19.6845 73.5019 20.3582 73.5019 21.1516Z" fill="black"/>
<path d="M61.7961 16.6838V15.2964C61.7961 14.1839 62.2482 13.1777 62.9751 12.4464C63.702 11.7194 64.7126 11.2673 65.8207 11.2673C68.0457 11.2673 69.8497 13.0713 69.8497 15.2964V16.6794H73.3734C73.4577 16.2317 73.4976 15.7663 73.4976 15.292C73.4976 11.0501 70.058 7.61499 65.8207 7.61499C61.5833 7.61499 58.1438 11.0501 58.1438 15.292C58.1438 15.7663 58.1881 16.2272 58.2679 16.6794H61.7961V16.6838Z" fill="black"/>
<path d="M96.0008 9.44579L96.0008 15.2966L99.6486 15.2966L99.6486 9.44579L96.0008 9.44579Z" fill="black"/>
<path d="M107.706 9.44482L107.706 15.2957L111.354 15.2957L111.354 9.44482L107.706 9.44482Z" fill="black"/>
<path d="M97.827 11.2717C98.8355 11.2717 99.6531 10.4541 99.6531 9.44555C99.6531 8.43699 98.8355 7.61938 97.827 7.61938C96.8184 7.61938 96.0009 8.43699 96.0009 9.44555C96.0009 10.4541 96.8184 11.2717 97.827 11.2717Z" fill="black"/>
<path d="M109.533 11.2717C110.541 11.2717 111.359 10.4541 111.359 9.44555C111.359 8.43699 110.541 7.61938 109.533 7.61938C108.524 7.61938 107.707 8.43699 107.707 9.44555C107.707 10.4541 108.524 11.2717 109.533 11.2717Z" fill="black"/>
<path d="M107.707 13.7893V15.2963C107.707 17.5214 105.903 19.3254 103.678 19.3254C101.453 19.3254 99.6487 17.5214 99.6487 15.2963V13.7893H96.1471C96.0496 14.2769 96.0009 14.7822 96.0009 15.2963C96.0009 19.5382 99.4359 22.9734 103.678 22.9734C107.92 22.9734 111.355 19.5382 111.355 15.2963C111.355 14.7822 111.306 14.2769 111.208 13.7893H107.707Z" fill="black"/>
<path d="M130.294 15.2964V21.1472C130.294 22.1534 129.478 22.9734 128.468 22.9734L126.828 21.9451C126.797 21.8874 126.775 21.8254 126.748 21.7633C126.682 21.5727 126.642 21.3644 126.642 21.1472V15.2964H130.294Z" fill="black"/>
<path d="M118.588 15.2964V21.1472C118.588 21.3644 118.548 21.5683 118.482 21.7633C118.362 22.0913 118.154 22.3794 117.883 22.5922C117.83 22.6321 117.772 22.672 117.71 22.7119C117.653 22.7473 117.591 22.7784 117.529 22.8094C117.298 22.9158 117.037 22.9778 116.766 22.9778C115.773 22.9778 114.967 22.1889 114.94 21.2004V15.2964H118.588Z" fill="black"/>
<path d="M114.935 9.44483L114.935 15.3223L118.583 15.3223L118.583 9.44483L114.935 9.44483Z" fill="black"/>
<path d="M116.762 11.2715C117.771 11.2715 118.588 10.4539 118.588 9.44531C118.588 8.43674 117.771 7.61914 116.762 7.61914C115.753 7.61914 114.936 8.43674 114.936 9.44531C114.936 10.4539 115.753 11.2715 116.762 11.2715Z" fill="black"/>
<path d="M118.588 21.1516C118.588 21.3688 118.548 21.5727 118.482 21.7677C118.362 22.0957 118.154 22.3838 117.879 22.5966C117.826 22.6365 117.768 22.6764 117.706 22.7162C117.649 22.7517 117.586 22.7827 117.524 22.8138C117.294 22.9201 117.032 22.9822 116.762 22.9822C115.769 22.9822 114.963 22.1932 114.936 21.2048C114.936 21.1915 114.936 21.1738 114.936 21.156C114.936 21.1427 114.936 21.125 114.936 21.1073C114.954 20.336 115.455 19.6844 116.146 19.4362C116.337 19.3697 116.545 19.3299 116.762 19.3299C117.773 19.3254 118.588 20.141 118.588 21.1516Z" fill="black"/>
<path d="M130.294 21.1516C130.294 22.1578 129.478 22.9778 128.468 22.9778C127.745 22.9778 127.125 22.5567 126.828 21.9495C126.797 21.8918 126.775 21.8298 126.748 21.7677C126.682 21.5771 126.642 21.3688 126.642 21.1516C126.642 20.1454 127.457 19.3254 128.468 19.3254C128.685 19.3254 128.893 19.3653 129.084 19.4318C129.789 19.6845 130.294 20.3582 130.294 21.1516Z" fill="black"/>
<path d="M118.589 16.6838V15.2964C118.589 14.1839 119.041 13.1777 119.768 12.4464C120.495 11.7194 121.505 11.2673 122.614 11.2673C124.839 11.2673 126.643 13.0713 126.643 15.2964V16.6794H130.166C130.251 16.2317 130.29 15.7663 130.29 15.292C130.29 11.0501 126.851 7.61499 122.614 7.61499C118.372 7.61499 114.937 11.0501 114.937 15.292C114.937 15.7663 114.981 16.2272 115.061 16.6794H118.589V16.6838Z" fill="black"/>
<path d="M142 15.2964V21.1472C142 22.1534 141.184 22.9734 140.174 22.9734L138.534 21.9451C138.503 21.8874 138.481 21.8254 138.454 21.7633C138.388 21.5727 138.348 21.3644 138.348 21.1472V15.2964H142Z" fill="black"/>
<path d="M130.294 15.2964V21.1472C130.294 21.3644 130.254 21.5683 130.187 21.7633C130.068 22.0913 129.859 22.3794 129.589 22.5922C129.536 22.6321 129.478 22.672 129.416 22.7119C129.359 22.7473 129.296 22.7784 129.234 22.8094C129.004 22.9158 128.742 22.9778 128.472 22.9778C127.479 22.9778 126.673 22.1889 126.646 21.2004V15.2964H130.294Z" fill="black"/>
<path d="M130.294 21.1516C130.294 21.3688 130.254 21.5727 130.188 21.7677C130.068 22.0957 129.86 22.3838 129.585 22.5966C129.532 22.6365 129.474 22.6764 129.412 22.7162C129.354 22.7517 129.292 22.7827 129.23 22.8138C129 22.9201 128.738 22.9822 128.468 22.9822C127.475 22.9822 126.668 22.1932 126.642 21.2048C126.642 21.1915 126.642 21.1738 126.642 21.156C126.642 21.1427 126.642 21.125 126.642 21.1073C126.659 20.336 127.16 19.6844 127.852 19.4362C128.042 19.3697 128.251 19.3299 128.468 19.3299C129.478 19.3254 130.294 20.141 130.294 21.1516Z" fill="black"/>
<path d="M142 21.1516C142 22.1578 141.184 22.9778 140.174 22.9778C139.451 22.9778 138.831 22.5567 138.534 21.9495C138.503 21.8918 138.481 21.8298 138.454 21.7677C138.388 21.5771 138.348 21.3688 138.348 21.1516C138.348 20.1454 139.163 19.3254 140.174 19.3254C140.391 19.3254 140.599 19.3653 140.79 19.4318C141.495 19.6845 142 20.3582 142 21.1516Z" fill="black"/>
<path d="M130.294 16.6838V15.2964C130.294 14.1839 130.746 13.1777 131.473 12.4464C132.2 11.7194 133.211 11.2673 134.319 11.2673C136.544 11.2673 138.348 13.0713 138.348 15.2964V16.6794H141.871C141.956 16.2317 141.995 15.7663 141.995 15.292C141.995 11.0501 138.556 7.61499 134.319 7.61499C130.077 7.61499 126.642 11.0501 126.642 15.292C126.642 15.7663 126.686 16.2272 126.766 16.6794H130.294V16.6838Z" fill="black"/>
<path d="M84.7514 7.61938H77.0834V11.2673H84.7514V7.61938Z" fill="black"/>
<path d="M84.7513 11.2717C85.7599 11.2717 86.5775 10.4541 86.5775 9.44555C86.5775 8.43699 85.7599 7.61938 84.7513 7.61938C83.7428 7.61938 82.9252 8.43699 82.9252 9.44555C82.9252 10.4541 83.7428 11.2717 84.7513 11.2717Z" fill="black"/>
</svg>
