<svg width="207" height="35" viewBox="0 0 207 35" fill="none" xmlns="http://www.w3.org/2000/svg">
<path d="M117.685 2.73926V28.9882H114.009C112.969 27.2396 112.368 25.1852 112.368 22.9845V2.73926H117.685Z" fill="white"/>
<path d="M134.75 22.9446V22.9845C134.75 29.3473 129.742 34.5 123.559 34.5C119.514 34.5 115.973 32.2927 114.009 28.9883C112.969 27.2397 112.368 25.1852 112.368 22.9845C112.368 18.8424 114.493 15.2122 117.685 13.1777V22.9446C117.685 22.9579 117.685 22.9712 117.685 22.9845C117.685 26.3222 120.315 29.0282 123.559 29.0282C126.802 29.0282 129.432 26.3222 129.432 22.9845C129.432 22.9712 129.432 22.9579 129.432 22.9446H134.75Z" fill="white"/>
<path d="M132.088 25.6838C133.558 25.6838 134.75 24.4574 134.75 22.9446C134.75 21.4317 133.558 20.2053 132.088 20.2053C130.618 20.2053 129.426 21.4317 129.426 22.9446C129.426 24.4574 130.618 25.6838 132.088 25.6838Z" fill="white"/>
<path d="M115.024 5.47851C116.494 5.47851 117.686 4.25211 117.686 2.73926C117.686 1.22641 116.494 0 115.024 0C113.554 0 112.362 1.22641 112.362 2.73926C112.362 4.25211 113.554 5.47851 115.024 5.47851Z" fill="white"/>
<path d="M68.3537 11.4292C62.1703 11.4292 57.1628 16.5819 57.1628 22.9447C57.1628 29.3075 62.1703 34.4602 68.3537 34.4602C74.5372 34.4602 79.5447 29.3075 79.5447 22.9447C79.5447 16.5886 74.5372 11.4292 68.3537 11.4292ZM68.3537 28.9884C65.1102 28.9884 62.4804 26.2823 62.4804 22.9447C62.4804 19.6071 65.1102 16.9011 68.3537 16.9011C71.5973 16.9011 74.227 19.6071 74.227 22.9447C74.227 26.2823 71.5973 28.9884 68.3537 28.9884Z" fill="white"/>
<path d="M74.2295 14.1672L74.2295 31.7263L79.5472 31.7263L79.5472 14.1672L74.2295 14.1672Z" fill="white"/>
<path d="M76.8893 16.9077C78.3595 16.9077 79.5513 15.6813 79.5513 14.1685C79.5513 12.6556 78.3595 11.4292 76.8893 11.4292C75.4191 11.4292 74.2272 12.6556 74.2272 14.1685C74.2272 15.6813 75.4191 16.9077 76.8893 16.9077Z" fill="white"/>
<path d="M76.8893 34.4668C78.3595 34.4668 79.5513 33.2404 79.5513 31.7275C79.5513 30.2147 78.3595 28.9883 76.8893 28.9883C75.4191 28.9883 74.2272 30.2147 74.2272 31.7275C74.2272 33.2404 75.4191 34.4668 76.8893 34.4668Z" fill="white"/>
<path d="M11.1909 11.4292C5.00749 11.4292 0 16.5886 0 22.9447C0 29.3075 5.00749 34.4602 11.1909 34.4602C17.3744 34.4602 22.3819 29.3075 22.3819 22.9447C22.3819 16.5886 17.3744 11.4292 11.1909 11.4292ZM11.1909 28.9884C7.94737 28.9884 5.31763 26.2823 5.31763 22.9447C5.31763 19.6071 7.94737 16.9011 11.1909 16.9011C14.4345 16.9011 17.0642 19.6071 17.0642 22.9447C17.0642 26.2823 14.4345 28.9884 11.1909 28.9884Z" fill="white"/>
<path d="M21.6842 28.9883H11.1911V34.4601H21.6842V28.9883Z" fill="white"/>
<path d="M21.6841 34.4668C23.1543 34.4668 24.3461 33.2404 24.3461 31.7275C24.3461 30.2147 23.1543 28.9883 21.6841 28.9883C20.2139 28.9883 19.022 30.2147 19.022 31.7275C19.022 33.2404 20.2139 34.4668 21.6841 34.4668Z" fill="white"/>
<path d="M29.5602 14.1691L29.5602 22.9453L34.8778 22.9453L34.8778 14.1691L29.5602 14.1691Z" fill="white"/>
<path d="M46.6228 14.1676L46.6228 22.9438L51.9404 22.9438L51.9404 14.1676L46.6228 14.1676Z" fill="white"/>
<path d="M32.2223 16.9077C33.6926 16.9077 34.8844 15.6813 34.8844 14.1685C34.8844 12.6556 33.6926 11.4292 32.2223 11.4292C30.7521 11.4292 29.5603 12.6556 29.5603 14.1685C29.5603 15.6813 30.7521 16.9077 32.2223 16.9077Z" fill="white"/>
<path d="M49.2865 16.9077C50.7567 16.9077 51.9486 15.6813 51.9486 14.1685C51.9486 12.6556 50.7567 11.4292 49.2865 11.4292C47.8163 11.4292 46.6245 12.6556 46.6245 14.1685C46.6245 15.6813 47.8163 16.9077 49.2865 16.9077Z" fill="white"/>
<path d="M46.6246 20.6841V22.9446C46.6246 26.2823 43.9948 28.9883 40.7513 28.9883C37.5077 28.9883 34.878 26.2823 34.878 22.9446V20.6841H29.7736C29.6314 21.4154 29.5603 22.1734 29.5603 22.9446C29.5603 29.3074 34.5678 34.4601 40.7513 34.4601C46.9347 34.4601 51.9422 29.3074 51.9422 22.9446C51.9422 22.1734 51.8711 21.4154 51.729 20.6841H46.6246Z" fill="white"/>
<path d="M107.147 22.9446V31.7208C107.147 33.2301 105.958 34.4601 104.485 34.4601L102.094 32.9176C102.049 32.8312 102.017 32.7381 101.978 32.645C101.881 32.3591 101.823 32.0466 101.823 31.7208V22.9446H107.147Z" fill="white"/>
<path d="M90.0826 22.9446V31.7208C90.0826 32.0466 90.0244 32.3525 89.9275 32.645C89.7531 33.137 89.4494 33.5692 89.0552 33.8883C88.9777 33.9481 88.8937 34.008 88.8033 34.0678C88.7193 34.121 88.6288 34.1676 88.5383 34.2141C88.2024 34.3737 87.8211 34.4667 87.427 34.4667C85.9797 34.4667 84.8037 33.2833 84.765 31.8006V22.9446H90.0826Z" fill="white"/>
<path d="M84.7617 14.1694L84.7617 22.9856L90.0793 22.9856L90.0793 14.1694L84.7617 14.1694Z" fill="white"/>
<path d="M87.4275 16.9077C88.8977 16.9077 90.0895 15.6813 90.0895 14.1685C90.0895 12.6556 88.8977 11.4292 87.4275 11.4292C85.9572 11.4292 84.7654 12.6556 84.7654 14.1685C84.7654 15.6813 85.9572 16.9077 87.4275 16.9077Z" fill="white"/>
<path d="M90.083 31.7275C90.083 32.0533 90.0249 32.3591 89.9279 32.6517C89.7535 33.1437 89.4498 33.5758 89.0492 33.895C88.9717 33.9548 88.8877 34.0147 88.7972 34.0745C88.7132 34.1277 88.6228 34.1742 88.5323 34.2208C88.1963 34.3803 87.8151 34.4734 87.421 34.4734C85.9736 34.4734 84.7977 33.2899 84.7589 31.8073C84.7589 31.7873 84.7589 31.7607 84.7589 31.7342C84.7589 31.7142 84.7589 31.6876 84.7589 31.661C84.7848 30.5041 85.5149 29.5268 86.5228 29.1545C86.8007 29.0547 87.1044 28.9949 87.421 28.9949C88.8941 28.9883 90.083 30.2116 90.083 31.7275Z" fill="white"/>
<path d="M107.147 31.7275C107.147 33.2368 105.958 34.4668 104.485 34.4668C103.432 34.4668 102.527 33.8352 102.094 32.9243C102.049 32.8379 102.017 32.7448 101.978 32.6517C101.881 32.3658 101.823 32.0533 101.823 31.7275C101.823 30.2183 103.012 28.9883 104.485 28.9883C104.802 28.9883 105.105 29.0481 105.383 29.1479C106.411 29.5268 107.147 30.5374 107.147 31.7275Z" fill="white"/>
<path d="M90.083 25.0256V22.9445C90.083 21.2757 90.7421 19.7665 91.8017 18.6694C92.8614 17.579 94.3345 16.9009 95.9498 16.9009C99.1934 16.9009 101.823 19.6069 101.823 22.9445V25.0189H106.96C107.083 24.3474 107.141 23.6493 107.141 22.9379C107.141 16.5751 102.127 11.4224 95.9498 11.4224C89.7729 11.4224 84.7589 16.5751 84.7589 22.9379C84.7589 23.6493 84.8235 24.3407 84.9398 25.0189H90.083V25.0256Z" fill="white"/>
<path d="M139.945 14.1688L139.945 22.9451L145.262 22.9451L145.262 14.1688L139.945 14.1688Z" fill="white"/>
<path d="M157.008 14.1673L157.008 22.9436L162.325 22.9436L162.325 14.1673L157.008 14.1673Z" fill="white"/>
<path d="M142.607 16.9077C144.077 16.9077 145.269 15.6813 145.269 14.1685C145.269 12.6556 144.077 11.4292 142.607 11.4292C141.137 11.4292 139.945 12.6556 139.945 14.1685C139.945 15.6813 141.137 16.9077 142.607 16.9077Z" fill="white"/>
<path d="M159.671 16.9077C161.141 16.9077 162.333 15.6813 162.333 14.1685C162.333 12.6556 161.141 11.4292 159.671 11.4292C158.201 11.4292 157.009 12.6556 157.009 14.1685C157.009 15.6813 158.201 16.9077 159.671 16.9077Z" fill="white"/>
<path d="M157.009 20.6841V22.9446C157.009 26.2823 154.379 28.9883 151.136 28.9883C147.892 28.9883 145.263 26.2823 145.263 22.9446V20.6841H140.158C140.016 21.4154 139.945 22.1734 139.945 22.9446C139.945 29.3074 144.952 34.4601 151.136 34.4601C157.319 34.4601 162.327 29.3074 162.327 22.9446C162.327 22.1734 162.256 21.4154 162.114 20.6841H157.009Z" fill="white"/>
<path d="M189.936 22.9446V31.7208C189.936 33.2301 188.747 34.4601 187.274 34.4601L184.883 32.9176C184.838 32.8312 184.805 32.7381 184.767 32.645C184.67 32.3591 184.612 32.0466 184.612 31.7208V22.9446H189.936Z" fill="white"/>
<path d="M172.871 22.9446V31.7208C172.871 32.0466 172.813 32.3525 172.716 32.645C172.541 33.137 172.238 33.5692 171.844 33.8883C171.766 33.9481 171.682 34.008 171.592 34.0678C171.508 34.121 171.417 34.1676 171.327 34.2141C170.991 34.3737 170.61 34.4667 170.215 34.4667C168.768 34.4667 167.592 33.2833 167.553 31.8006V22.9446H172.871Z" fill="white"/>
<path d="M167.546 14.167L167.546 22.9832L172.864 22.9832L172.864 14.167L167.546 14.167Z" fill="white"/>
<path d="M170.209 16.9072C171.68 16.9072 172.871 15.6808 172.871 14.168C172.871 12.6551 171.68 11.4287 170.209 11.4287C168.739 11.4287 167.547 12.6551 167.547 14.168C167.547 15.6808 168.739 16.9072 170.209 16.9072Z" fill="white"/>
<path d="M172.871 31.7275C172.871 32.0533 172.813 32.3591 172.716 32.6517C172.542 33.1437 172.238 33.5758 171.838 33.895C171.76 33.9548 171.676 34.0147 171.586 34.0745C171.502 34.1277 171.411 34.1742 171.321 34.2208C170.985 34.3803 170.604 34.4734 170.209 34.4734C168.762 34.4734 167.586 33.2899 167.547 31.8073C167.547 31.7873 167.547 31.7607 167.547 31.7342C167.547 31.7142 167.547 31.6876 167.547 31.661C167.573 30.5041 168.303 29.5268 169.311 29.1545C169.589 29.0547 169.893 28.9949 170.209 28.9949C171.683 28.9883 172.871 30.2116 172.871 31.7275Z" fill="white"/>
<path d="M189.936 31.7275C189.936 33.2368 188.747 34.4668 187.274 34.4668C186.22 34.4668 185.316 33.8352 184.883 32.9243C184.838 32.8379 184.805 32.7448 184.767 32.6517C184.67 32.3658 184.612 32.0533 184.612 31.7275C184.612 30.2183 185.8 28.9883 187.274 28.9883C187.59 28.9883 187.894 29.0481 188.172 29.1479C189.199 29.5268 189.936 30.5374 189.936 31.7275Z" fill="white"/>
<path d="M172.873 25.0256V22.9445C172.873 21.2757 173.532 19.7665 174.592 18.6694C175.651 17.579 177.125 16.9009 178.74 16.9009C181.984 16.9009 184.613 19.6069 184.613 22.9445V25.0189H189.75C189.873 24.3474 189.931 23.6493 189.931 22.9379C189.931 16.5751 184.917 11.4224 178.74 11.4224C172.557 11.4224 167.549 16.5751 167.549 22.9379C167.549 23.6493 167.614 24.3407 167.73 25.0189H172.873V25.0256Z" fill="white"/>
<path d="M207 22.9446V31.7208C207 33.2301 205.811 34.4601 204.338 34.4601L201.947 32.9176C201.902 32.8312 201.87 32.7381 201.831 32.645C201.734 32.3591 201.676 32.0466 201.676 31.7208V22.9446H207Z" fill="white"/>
<path d="M189.935 22.9446V31.7208C189.935 32.0466 189.877 32.3525 189.78 32.645C189.606 33.137 189.302 33.5692 188.908 33.8883C188.83 33.9481 188.746 34.008 188.656 34.0678C188.572 34.121 188.481 34.1676 188.391 34.2141C188.055 34.3737 187.674 34.4667 187.28 34.4667C185.832 34.4667 184.656 33.2833 184.618 31.8006V22.9446H189.935Z" fill="white"/>
<path d="M189.936 31.7275C189.936 32.0533 189.877 32.3591 189.781 32.6517C189.606 33.1437 189.302 33.5758 188.902 33.895C188.824 33.9548 188.74 34.0147 188.65 34.0745C188.566 34.1277 188.475 34.1742 188.385 34.2208C188.049 34.3803 187.668 34.4734 187.274 34.4734C185.826 34.4734 184.65 33.2899 184.612 31.8073C184.612 31.7873 184.612 31.7607 184.612 31.7342C184.612 31.7142 184.612 31.6876 184.612 31.661C184.637 30.5041 185.367 29.5268 186.375 29.1545C186.653 29.0547 186.957 28.9949 187.274 28.9949C188.747 28.9883 189.936 30.2116 189.936 31.7275Z" fill="white"/>
<path d="M207 31.7275C207 33.2368 205.811 34.4668 204.338 34.4668C203.285 34.4668 202.38 33.8352 201.947 32.9243C201.902 32.8379 201.87 32.7448 201.831 32.6517C201.734 32.3658 201.676 32.0533 201.676 31.7275C201.676 30.2183 202.865 28.9883 204.338 28.9883C204.655 28.9883 204.958 29.0481 205.236 29.1479C206.263 29.5268 207 30.5374 207 31.7275Z" fill="white"/>
<path d="M189.936 25.0256V22.9445C189.936 21.2757 190.595 19.7665 191.654 18.6694C192.714 17.579 194.187 16.9009 195.802 16.9009C199.046 16.9009 201.676 19.6069 201.676 22.9445V25.0189H206.812C206.935 24.3474 206.993 23.6493 206.993 22.9379C206.993 16.5751 201.979 11.4224 195.802 11.4224C189.619 11.4224 184.612 16.5751 184.612 22.9379C184.612 23.6493 184.676 24.3407 184.792 25.0189H189.936V25.0256Z" fill="white"/>
<path d="M123.546 11.4292H112.368V16.9011H123.546V11.4292Z" fill="white"/>
<path d="M123.546 16.9077C125.016 16.9077 126.208 15.6813 126.208 14.1685C126.208 12.6556 125.016 11.4292 123.546 11.4292C122.076 11.4292 120.884 12.6556 120.884 14.1685C120.884 15.6813 122.076 16.9077 123.546 16.9077Z" fill="white"/>
</svg>
