<svg width="932" height="151" viewBox="0 0 932 151" fill="none" xmlns="http://www.w3.org/2000/svg">
<path d="M529.869 11.9843V126.824H513.316C508.632 119.173 505.927 110.185 505.927 100.557V11.9843H529.869Z" fill="#F5F5F5"/>
<path d="M606.699 100.383V100.557C606.699 128.394 584.153 150.937 556.313 150.937C538.102 150.937 522.16 141.28 513.316 126.824C508.632 119.173 505.927 110.185 505.927 100.557C505.927 82.4353 515.498 66.5533 529.869 57.6523V100.383C529.869 100.441 529.869 100.499 529.869 100.557C529.869 115.159 541.709 126.998 556.313 126.998C570.917 126.998 582.757 115.159 582.757 100.557C582.757 100.499 582.757 100.441 582.757 100.383H606.699Z" fill="#F5F5F5"/>
<path d="M594.714 112.367C601.334 112.367 606.7 107.001 606.7 100.383C606.7 93.7638 601.334 88.3983 594.714 88.3983C588.095 88.3983 582.729 93.7638 582.729 100.383C582.729 107.001 588.095 112.367 594.714 112.367Z" fill="#F5F5F5"/>
<path d="M517.885 23.9685C524.504 23.9685 529.87 18.603 529.87 11.9842C529.87 5.36553 524.504 0 517.885 0C511.265 0 505.899 5.36553 505.899 11.9842C505.899 18.603 511.265 23.9685 517.885 23.9685Z" fill="#F5F5F5"/>
<path d="M307.757 50.0022C279.916 50.0022 257.371 72.5454 257.371 100.383C257.371 128.22 279.916 150.763 307.757 150.763C335.597 150.763 358.143 128.22 358.143 100.383C358.143 72.5745 335.597 50.0022 307.757 50.0022ZM307.757 126.824C293.153 126.824 281.313 114.985 281.313 100.383C281.313 85.7804 293.153 73.9416 307.757 73.9416C322.361 73.9416 334.201 85.7804 334.201 100.383C334.201 114.985 322.361 126.824 307.757 126.824Z" fill="#F5F5F5"/>
<path d="M334.212 61.9813L334.212 138.803L358.154 138.803L358.154 61.9813L334.212 61.9813Z" fill="#F5F5F5"/>
<path d="M346.187 73.9707C352.807 73.9707 358.173 68.6052 358.173 61.9865C358.173 55.3678 352.807 50.0022 346.187 50.0022C339.568 50.0022 334.202 55.3678 334.202 61.9865C334.202 68.6052 339.568 73.9707 346.187 73.9707Z" fill="#F5F5F5"/>
<path d="M346.187 150.792C352.807 150.792 358.173 145.427 358.173 138.808C358.173 132.189 352.807 126.824 346.187 126.824C339.568 126.824 334.202 132.189 334.202 138.808C334.202 145.427 339.568 150.792 346.187 150.792Z" fill="#F5F5F5"/>
<path d="M50.3862 50.0022C22.5458 50.0022 0 72.5745 0 100.383C0 128.22 22.5458 150.763 50.3862 150.763C78.2267 150.763 100.772 128.22 100.772 100.383C100.772 72.5745 78.2267 50.0022 50.3862 50.0022ZM50.3862 126.824C35.7824 126.824 23.9422 114.985 23.9422 100.383C23.9422 85.7804 35.7824 73.9416 50.3862 73.9416C64.9901 73.9416 76.8303 85.7804 76.8303 100.383C76.8303 114.985 64.9901 126.824 50.3862 126.824Z" fill="#F5F5F5"/>
<path d="M97.6313 126.824H50.3869V150.763H97.6313V126.824Z" fill="#F5F5F5"/>
<path d="M97.6308 150.792C104.25 150.792 109.616 145.427 109.616 138.808C109.616 132.189 104.25 126.824 97.6308 126.824C91.0114 126.824 85.6452 132.189 85.6452 138.808C85.6452 145.427 91.0114 150.792 97.6308 150.792Z" fill="#F5F5F5"/>
<path d="M133.092 61.9888L133.092 100.385L157.035 100.385L157.035 61.9888L133.092 61.9888Z" fill="#F5F5F5"/>
<path d="M209.915 61.9827L209.915 100.379L233.857 100.379L233.857 61.9827L209.915 61.9827Z" fill="#F5F5F5"/>
<path d="M145.078 73.9707C151.698 73.9707 157.064 68.6052 157.064 61.9865C157.064 55.3678 151.698 50.0022 145.078 50.0022C138.459 50.0022 133.093 55.3678 133.093 61.9865C133.093 68.6052 138.459 73.9707 145.078 73.9707Z" fill="#F5F5F5"/>
<path d="M221.908 73.9707C228.528 73.9707 233.894 68.6052 233.894 61.9865C233.894 55.3678 228.528 50.0022 221.908 50.0022C215.289 50.0022 209.923 55.3678 209.923 61.9865C209.923 68.6052 215.289 73.9707 221.908 73.9707Z" fill="#F5F5F5"/>
<path d="M209.923 90.4926V100.383C209.923 114.985 198.083 126.824 183.479 126.824C168.875 126.824 157.035 114.985 157.035 100.383V90.4926H134.053C133.413 93.6923 133.093 97.0083 133.093 100.383C133.093 128.22 155.639 150.763 183.479 150.763C211.32 150.763 233.865 128.22 233.865 100.383C233.865 97.0083 233.545 93.6923 232.905 90.4926H209.923Z" fill="#F5F5F5"/>
<path d="M482.421 100.383V138.779C482.421 145.382 477.068 150.763 470.435 150.763L459.671 144.015C459.468 143.637 459.322 143.229 459.148 142.822C458.711 141.571 458.45 140.204 458.45 138.779V100.383H482.421Z" fill="#F5F5F5"/>
<path d="M405.59 100.383V138.779C405.59 140.204 405.328 141.542 404.891 142.822C404.106 144.975 402.739 146.865 400.964 148.261C400.615 148.523 400.237 148.785 399.83 149.047C399.451 149.28 399.044 149.483 398.637 149.687C397.124 150.385 395.408 150.792 393.633 150.792C387.117 150.792 381.822 145.614 381.647 139.128V100.383H405.59Z" fill="#F5F5F5"/>
<path d="M381.633 61.9915L381.633 100.562L405.575 100.562L405.575 61.9915L381.633 61.9915Z" fill="#F5F5F5"/>
<path d="M393.635 73.972C400.255 73.972 405.621 68.6065 405.621 61.9877C405.621 55.369 400.255 50.0035 393.635 50.0035C387.016 50.0035 381.65 55.369 381.65 61.9877C381.65 68.6065 387.016 73.972 393.635 73.972Z" fill="#F5F5F5"/>
<path d="M405.591 138.808C405.591 140.233 405.329 141.571 404.893 142.851C404.107 145.004 402.74 146.894 400.937 148.29C400.587 148.552 400.209 148.814 399.802 149.076C399.424 149.309 399.016 149.512 398.609 149.716C397.096 150.414 395.38 150.821 393.605 150.821C387.089 150.821 381.794 145.643 381.62 139.157C381.62 139.07 381.62 138.953 381.62 138.837C381.62 138.75 381.62 138.633 381.62 138.517C381.736 133.456 385.024 129.18 389.562 127.551C390.813 127.114 392.18 126.853 393.605 126.853C400.238 126.824 405.591 132.176 405.591 138.808Z" fill="#F5F5F5"/>
<path d="M482.421 138.808C482.421 145.411 477.068 150.792 470.435 150.792C465.693 150.792 461.62 148.029 459.671 144.044C459.468 143.666 459.322 143.258 459.148 142.851C458.711 141.6 458.45 140.233 458.45 138.808C458.45 132.205 463.802 126.824 470.435 126.824C471.861 126.824 473.228 127.085 474.479 127.522C479.104 129.18 482.421 133.601 482.421 138.808Z" fill="#F5F5F5"/>
<path d="M405.591 109.487V100.383C405.591 93.0815 408.558 86.4786 413.329 81.6791C418.1 76.9086 424.733 73.9417 432.006 73.9417C446.61 73.9417 458.45 85.7805 458.45 100.383V109.458H481.578C482.13 106.52 482.392 103.466 482.392 100.354C482.392 72.5164 459.817 49.9732 432.006 49.9732C404.195 49.9732 381.62 72.5164 381.62 100.354C381.62 103.466 381.911 106.491 382.434 109.458H405.591V109.487Z" fill="#F5F5F5"/>
<path d="M630.09 61.9883L630.09 100.384L654.032 100.384L654.032 61.9883L630.09 61.9883Z" fill="#F5F5F5"/>
<path d="M706.913 61.9818L706.913 100.378L730.856 100.378L730.856 61.9818L706.913 61.9818Z" fill="#F5F5F5"/>
<path d="M642.076 73.9707C648.695 73.9707 654.061 68.6052 654.061 61.9865C654.061 55.3678 648.695 50.0022 642.076 50.0022C635.456 50.0022 630.09 55.3678 630.09 61.9865C630.09 68.6052 635.456 73.9707 642.076 73.9707Z" fill="#F5F5F5"/>
<path d="M718.906 73.9707C725.525 73.9707 730.892 68.6052 730.892 61.9865C730.892 55.3678 725.525 50.0022 718.906 50.0022C712.286 50.0022 706.92 55.3678 706.92 61.9865C706.92 68.6052 712.286 73.9707 718.906 73.9707Z" fill="#F5F5F5"/>
<path d="M706.921 90.4926V100.383C706.921 114.985 695.081 126.824 680.477 126.824C665.873 126.824 654.033 114.985 654.033 100.383V90.4926H631.05C630.41 93.6923 630.09 97.0083 630.09 100.383C630.09 128.22 652.636 150.763 680.477 150.763C708.317 150.763 730.863 128.22 730.863 100.383C730.863 97.0083 730.543 93.6923 729.903 90.4926H706.921Z" fill="#F5F5F5"/>
<path d="M855.169 100.383V138.779C855.169 145.382 849.816 150.763 843.183 150.763L832.42 144.015C832.216 143.637 832.07 143.229 831.896 142.822C831.459 141.571 831.198 140.204 831.198 138.779V100.383H855.169Z" fill="#F5F5F5"/>
<path d="M778.338 100.383V138.779C778.338 140.204 778.076 141.542 777.639 142.822C776.854 144.975 775.487 146.865 773.712 148.261C773.363 148.523 772.985 148.785 772.578 149.047C772.199 149.28 771.792 149.483 771.385 149.687C769.872 150.385 768.156 150.792 766.381 150.792C759.865 150.792 754.57 145.614 754.395 139.128V100.383H778.338Z" fill="#F5F5F5"/>
<path d="M754.363 61.9807L754.363 100.551L778.305 100.551L778.305 61.9807L754.363 61.9807Z" fill="#F5F5F5"/>
<path d="M766.353 73.9694C772.973 73.9694 778.339 68.6039 778.339 61.9852C778.339 55.3665 772.973 50.001 766.353 50.001C759.734 50.001 754.368 55.3665 754.368 61.9852C754.368 68.6039 759.734 73.9694 766.353 73.9694Z" fill="#F5F5F5"/>
<path d="M778.339 138.808C778.339 140.233 778.077 141.571 777.641 142.851C776.855 145.004 775.488 146.894 773.685 148.29C773.335 148.552 772.957 148.814 772.55 149.076C772.172 149.309 771.764 149.512 771.357 149.716C769.844 150.414 768.128 150.821 766.353 150.821C759.837 150.821 754.542 145.643 754.368 139.157C754.368 139.07 754.368 138.953 754.368 138.837C754.368 138.75 754.368 138.633 754.368 138.517C754.484 133.456 757.772 129.18 762.31 127.551C763.561 127.114 764.928 126.853 766.353 126.853C772.986 126.824 778.339 132.176 778.339 138.808Z" fill="#F5F5F5"/>
<path d="M855.169 138.808C855.169 145.411 849.816 150.792 843.183 150.792C838.441 150.792 834.369 148.029 832.42 144.044C832.216 143.666 832.07 143.258 831.896 142.851C831.459 141.6 831.198 140.233 831.198 138.808C831.198 132.205 836.55 126.824 843.183 126.824C844.609 126.824 845.976 127.085 847.227 127.522C851.853 129.18 855.169 133.601 855.169 138.808Z" fill="#F5F5F5"/>
<path d="M778.345 109.487V100.383C778.345 93.0815 781.312 86.4786 786.083 81.6791C790.854 76.9086 797.487 73.9417 804.76 73.9417C819.363 73.9417 831.204 85.7805 831.204 100.383V109.458H854.331C854.884 106.52 855.146 103.466 855.146 100.354C855.146 72.5164 832.571 49.9732 804.76 49.9732C776.919 49.9732 754.373 72.5164 754.373 100.354C754.373 103.466 754.664 106.491 755.188 109.458H778.345V109.487Z" fill="#F5F5F5"/>
<path d="M932 100.383V138.779C932 145.382 926.647 150.763 920.015 150.763L909.251 144.015C909.047 143.637 908.902 143.229 908.727 142.822C908.291 141.571 908.029 140.204 908.029 138.779V100.383H932Z" fill="#F5F5F5"/>
<path d="M855.167 100.383V138.779C855.167 140.204 854.906 141.542 854.469 142.822C853.684 144.975 852.316 146.865 850.542 148.261C850.193 148.523 849.815 148.785 849.407 149.047C849.029 149.28 848.622 149.483 848.215 149.687C846.702 150.385 844.985 150.792 843.211 150.792C836.694 150.792 831.4 145.614 831.225 139.128V100.383H855.167Z" fill="#F5F5F5"/>
<path d="M855.169 138.808C855.169 140.233 854.907 141.571 854.471 142.851C853.685 145.004 852.318 146.894 850.514 148.29C850.165 148.552 849.787 148.814 849.38 149.076C849.002 149.309 848.594 149.512 848.187 149.716C846.674 150.414 844.958 150.821 843.183 150.821C836.667 150.821 831.372 145.643 831.198 139.157C831.198 139.07 831.198 138.953 831.198 138.837C831.198 138.75 831.198 138.633 831.198 138.517C831.314 133.456 834.601 129.18 839.14 127.551C840.391 127.114 841.758 126.853 843.183 126.853C849.816 126.824 855.169 132.176 855.169 138.808Z" fill="#F5F5F5"/>
<path d="M932 138.808C932 145.411 926.647 150.792 920.015 150.792C915.273 150.792 911.2 148.029 909.251 144.044C909.047 143.666 908.902 143.258 908.727 142.851C908.291 141.6 908.029 140.233 908.029 138.808C908.029 132.205 913.382 126.824 920.015 126.824C921.44 126.824 922.807 127.085 924.058 127.522C928.684 129.18 932 133.601 932 138.808Z" fill="#F5F5F5"/>
<path d="M855.169 109.487V100.383C855.169 93.0815 858.136 86.4786 862.907 81.6791C867.678 76.9086 874.311 73.9417 881.584 73.9417C896.188 73.9417 908.028 85.7805 908.028 100.383V109.458H931.156C931.708 106.52 931.97 103.466 931.97 100.354C931.97 72.5164 909.395 49.9732 881.584 49.9732C853.744 49.9732 831.198 72.5164 831.198 100.354C831.198 103.466 831.489 106.491 832.012 109.458H855.169V109.487Z" fill="#F5F5F5"/>
<path d="M556.255 50.0022H505.927V73.9416H556.255V50.0022Z" fill="#F5F5F5"/>
<path d="M556.255 73.9707C562.874 73.9707 568.24 68.6052 568.24 61.9865C568.24 55.3678 562.874 50.0022 556.255 50.0022C549.635 50.0022 544.269 55.3678 544.269 61.9865C544.269 68.6052 549.635 73.9707 556.255 73.9707Z" fill="#F5F5F5"/>
</svg>
